[Header]
FileType HTR
DataType HTRS
FileVersion 1
NumSegments 48
NumFrames 3
DataFrameRate 30
EulerRotationOrder ZYX
CalibrationUnits mm
RotationUnits Degrees
GlobalAxisofGravity Y
BoneLengthAxis Y
ScaleFactor 1.0
[SegmentNames&Hierarchy]
Wolf	GLOBAL
Becken	Wolf
Bauch	Becken
Bauch_001	Bauch
Brust	Bauch_001
Hals	Brust
Kopf_002	Hals
Kopf	Kopf_002
Unterkiefer	Kopf
Hals_fett	Unterkiefer
Maulunten	Unterkiefer
Mauloben	Kopf
MundW_L	Kopf
MundW_R	Kopf
Augen_con	Kopf
IK_Aug_R	Augen_con
IK_Aug_L	Augen_con
Aug_R	Kopf
aug_L	Kopf
Ohr_L	Kopf
Ohr_R	Kopf
Braun_O_L	Kopf
Braun_O_R	Kopf
aug_lied_O_L	Kopf
aug_lied_O_R	Kopf
aug_lied_U_L	Kopf
aug_lied_U_R	Kopf
Bauch_003	Brust
Schalterplatte_L	Bauch_003
Oberarm_L	Schalterplatte_L
Unterarm_L	Oberarm_L
Vorderpfote_L	Unterarm_L
Schalterplatte_R	Bauch_003
Oberarm_R	Schalterplatte_R
Unterarm_R	Oberarm_R
Vorderpfote_R	Unterarm_R
Schwanz	Becken
Schwanz_001	Schwanz
Schwanz_002	Schwanz_001
Schwanz_003	Schwanz_002
Oberschenkel_L	Becken
Unterschenkel_L	Oberschenkel_L
Pfote1_L	Unterschenkel_L
Pfote2_L	Pfote1_L
Oberschenkel_R	Becken
Unterschenkel_R	Oberschenkel_R
Pfote1_R	Unterschenkel_R
Pfote2_R	Pfote1_R
[BasePosition]
Wolf	0	0	0	0	0	0	1
Becken	0	0	0	0	0	0	1
Bauch	0	0	0	0	0	0	1
Bauch_001	0	0	0	0	0	0	1
Brust	0	0	0	0	0	0	1
Hals	0	0	0	0	0	0	1
Kopf_002	0	0	0	0	0	0	1
Kopf	0	0	0	0	0	0	1
Unterkiefer	0	0	0	0	0	0	1
Hals_fett	0	0	0	0	0	0	1
Maulunten	0	0	0	0	0	0	1
Mauloben	0	0	0	0	0	0	1
MundW_L	0	0	0	0	0	0	1
MundW_R	0	0	0	0	0	0	1
Augen_con	0	0	0	0	0	0	1
IK_Aug_R	0	0	0	0	0	0	1
IK_Aug_L	0	0	0	0	0	0	1
Aug_R	0	0	0	0	0	0	1
aug_L	0	0	0	0	0	0	1
Ohr_L	0	0	0	0	0	0	1
Ohr_R	0	0	0	0	0	0	1
Braun_O_L	0	0	0	0	0	0	1
Braun_O_R	0	0	0	0	0	0	1
aug_lied_O_L	0	0	0	0	0	0	1
aug_lied_O_R	0	0	0	0	0	0	1
aug_lied_U_L	0	0	0	0	0	0	1
aug_lied_U_R	0	0	0	0	0	0	1
Bauch_003	0	0	0	0	0	0	1
Schalterplatte_L	0	0	0	0	0	0	1
Oberarm_L	0	0	0	0	0	0	1
Unterarm_L	0	0	0	0	0	0	1
Vorderpfote_L	0	0	0	0	0	0	1
Schalterplatte_R	0	0	0	0	0	0	1
Oberarm_R	0	0	0	0	0	0	1
Unterarm_R	0	0	0	0	0	0	1
Vorderpfote_R	0	0	0	0	0	0	1
Schwanz	0	0	0	0	0	0	1
Schwanz_001	0	0	0	0	0	0	1
Schwanz_002	0	0	0	0	0	0	1
Schwanz_003	0	0	0	0	0	0	1
Oberschenkel_L	0	0	0	0	0	0	1
Unterschenkel_L	0	0	0	0	0	0	1
Pfote1_L	0	0	0	0	0	0	1
Pfote2_L	0	0	0	0	0	0	1
Oberschenkel_R	0	0	0	0	0	0	1
Unterschenkel_R	0	0	0	0	0	0	1
Pfote1_R	0	0	0	0	0	0	1
Pfote2_R	0	0	0	0	0	0	1
[Wolf]
34	0	0	0	-90	-0	0	1.0
35	0	0	0	-90	-0	0	1.0
36	0	0	0	-90	-0	0	1.0
[Becken]
34	0	0.3263640106	-0.2461518496	-2.067962885	164.4212189	89.26520538	1.0
35	0	0.3184740245	-0.2325158417	-2.067962885	164.4212189	89.26520538	1.0
36	0	0.3130500019	-0.2231397927	-2.067962885	164.4212189	89.26520538	1.0
[Bauch]
34	0.9984878302	-0.00741992658	-0.150611341	-6.458931239e-07	12.60522842	-8.201818247e-08	1.0
35	0.9984878302	-0.00741992658	-0.150611341	-6.458931239e-07	12.60522842	-8.201818247e-08	1.0
36	0.9984878302	-0.00741992658	-0.150611341	-6.458931239e-07	12.60522842	-8.201818247e-08	1.0
[Bauch_001]
34	1.071342349	0.006600080058	-0.1893585622	-1.568805601e-07	2.360082865	-2.503413654e-08	1.0
35	1.071342349	0.006600080058	-0.1893585622	-1.568805601e-07	2.360082865	-2.503413654e-08	1.0
36	1.071342349	0.006600080058	-0.1893585622	-1.568805601e-07	2.360082865	-2.503413654e-08	1.0
[Brust]
34	1.41907382	-0.01381989196	0.3623858392	3.618613846e-06	10.7627573	-4.096809789e-05	1.0
35	1.41907382	-0.01381989196	0.3623858392	3.618613846e-06	10.7627573	-4.096809789e-05	1.0
36	1.41907382	-0.01381989196	0.3623858392	3.618613846e-06	10.7627573	-4.096809789e-05	1.0
[Hals]
34	1.1844244	-0.01484991144	1.02827692	-4.51789947e-06	46.87745285	-2.16624926e-06	1.0
35	1.1844244	-0.01484991144	1.02827692	-4.51789947e-06	46.87745285	-2.16624926e-06	1.0
36	1.1844244	-0.01484991144	1.02827692	-4.51789947e-06	46.87745285	-2.16624926e-06	1.0
[Kopf_002]
34	1.75259161	3.012944944e-05	0.2651725411	0.006653842982	-165.1497192	0.002556535648	1.0
35	1.75259161	3.012944944e-05	0.2651725411	0.006653842982	-165.1497192	0.002556535648	1.0
36	1.75259161	3.012944944e-05	0.2651725411	0.006653842982	-165.1497192	0.002556535648	1.0
[Kopf]
34	1.015781879	8.032657206e-08	9.111317922e-08	0.06872025877	123.2280426	-0.02605217695	1.0
35	1.015781879	8.032657206e-08	9.111317922e-08	0.06872025877	123.2280426	-0.02605217695	1.0
36	1.015781879	8.032657206e-08	9.111317922e-08	0.06872025877	123.2280426	-0.02605217695	1.0
[Unterkiefer]
34	0.6370437145	0.004552738741	0.4060620368	5.412721157	-68.3888092	-3.09354353	1.0
35	0.6370437145	0.004552738741	0.4060620368	5.412721157	-68.3888092	-3.09354353	1.0
36	0.6370437145	0.004552738741	0.4060620368	5.412721157	-68.3888092	-3.09354353	1.0
[Hals_fett]
34	0.2998299599	0.007747137919	0.1206380203	-5.071650982	-59.35961533	5.585566998	1.0
35	0.2998299599	0.007747137919	0.1206380203	-5.071650982	-59.35961533	5.585566998	1.0
36	0.2998299599	0.007747137919	0.1206380203	-5.071650982	-59.35961533	5.585566998	1.0
[Maulunten]
34	0.08317943662	-0.007747350261	-0.1206459776	-3.32220912	38.97271347	-0.871876061	1.0
35	0.08317943662	-0.007747350261	-0.1206459776	-3.32220912	38.97271347	-0.871876061	1.0
36	0.08317943662	-0.007747350261	-0.1206459776	-3.32220912	38.97271347	-0.871876061	1.0
[Mauloben]
34	0.910148263	0.0004056794569	0.4003701806	-0.1032674983	-28.77768707	0.03543139994	1.0
35	0.910148263	0.0004056794569	0.4003701806	-0.1032674983	-28.77768707	0.03543139994	1.0
36	0.910148263	0.0004056794569	0.4003701806	-0.1032674983	-28.77768707	0.03543139994	1.0
[MundW_L]
34	0.673060894	-0.3618556261	0.3751286268	-179.8370972	-17.94884872	24.71397209	1.0
35	0.673060894	-0.3618556261	0.3751286268	-179.8370972	-17.94884872	24.71397209	1.0
36	0.673060894	-0.3618556261	0.3751286268	-179.8370972	-17.94884872	24.71397209	1.0
[MundW_R]
34	0.6732318401	0.3627035022	0.37398085	179.6653442	-18.02427101	-24.69083977	1.0
35	0.6732318401	0.3627035022	0.37398085	179.6653442	-18.02427101	-24.69083977	1.0
36	0.6732318401	0.3627035022	0.37398085	179.6653442	-18.02427101	-24.69083977	1.0
[Augen_con]
34	1.807372689	-0.0001604028512	0.1835819334	0.09822253883	157.1545258	0.02385936864	1.0
35	1.807372689	-0.0001604028512	0.1835819334	0.09822253883	157.1545258	0.02385936864	1.0
36	1.807372689	-0.0001604028512	0.1835819334	0.09822253883	157.1545258	0.02385936864	1.0
[IK_Aug_R]
34	0.3461304307	0.2943200469	-8.032657206e-08	-0.4194762409	-4.963055134	165.6946411	1.0
35	0.3461304307	0.2943200469	-8.032657206e-08	-0.4194762409	-4.963055134	165.6946411	1.0
36	0.3461304307	0.2943200469	-8.032657206e-08	-0.4194762409	-4.963055134	165.6946411	1.0
[IK_Aug_L]
34	0.3461307883	-0.2943199575	-1.629814861e-08	0.4194769561	-4.963055134	-165.6946411	1.0
35	0.3461307883	-0.2943199575	-1.629814861e-08	0.4194769561	-4.963055134	-165.6946411	1.0
36	0.3461307883	-0.2943199575	-1.629814861e-08	0.4194769561	-4.963055134	-165.6946411	1.0
[Aug_R]
34	1.0351547	0.2207805812	-0.09605748951	176.004776	-17.29163933	12.85548019	1.0
35	1.0351547	0.2207805812	-0.09605748951	176.004776	-17.29163933	12.85548019	1.0
36	1.0351547	0.2207805812	-0.09605748951	176.004776	-17.29163933	12.85548019	1.0
[aug_L]
34	1.035044074	-0.2215988934	-0.09535883367	-176.1891022	-17.33178139	-12.83103275	1.0
35	1.035044074	-0.2215988934	-0.09535883367	-176.1891022	-17.33178139	-12.83103275	1.0
36	1.035044074	-0.2215988934	-0.09535883367	-176.1891022	-17.33178139	-12.83103275	1.0
[Ohr_L]
34	0.6407760978	-0.3659991622	-0.6893320084	-24.34924507	53.07766342	-15.02013397	1.0
35	0.6407760978	-0.3659991622	-0.6893320084	-24.34924507	53.07766342	-15.02013397	1.0
36	0.6407760978	-0.3659991622	-0.6893320084	-24.34924507	53.07766342	-15.02013397	1.0
[Ohr_R]
34	0.6409583092	0.3634999394	-0.6904845238	24.05786133	53.12416077	14.75857162	1.0
35	0.6409583092	0.3634999394	-0.6904845238	24.05786133	53.12416077	14.75857162	1.0
36	0.6409583092	0.3634999394	-0.6904845238	24.05786133	53.12416077	14.75857162	1.0
[Braun_O_L]
34	0.9801794291	-0.3706048727	-0.3292538524	-143.3172302	-34.69635391	52.39493942	1.0
35	0.9801794291	-0.3706048727	-0.3292538524	-143.3172302	-34.69635391	52.39493942	1.0
36	0.9801794291	-0.3706048727	-0.3292538524	-143.3172302	-34.69635391	52.39493942	1.0
[Braun_O_R]
34	0.9803634882	0.3690741956	-0.3304223716	143.1826782	-34.83971786	-52.3467598	1.0
35	0.9803634882	0.3690741956	-0.3304223716	143.1826782	-34.83971786	-52.3467598	1.0
36	0.9803634882	0.3690741956	-0.3304223716	143.1826782	-34.83971786	-52.3467598	1.0
[aug_lied_O_L]
34	1.038881421	-0.3271433711	-0.1608108282	-175.8613434	-20.15596199	60.31666946	1.0
35	1.038881421	-0.3271433711	-0.1608108282	-175.8613434	-20.15596199	60.31666946	1.0
36	1.038881421	-0.3271433711	-0.1608108282	-175.8613434	-20.15596199	60.31666946	1.0
[aug_lied_O_R]
34	1.039044261	0.3261157274	-0.1618429124	175.7657928	-20.31323814	-60.31218338	1.0
35	1.039044261	0.3261157274	-0.1618429124	175.7657928	-20.31323814	-60.31218338	1.0
36	1.039044261	0.3261157274	-0.1618429124	175.7657928	-20.31323814	-60.31218338	1.0
[aug_lied_U_L]
34	1.021915555	-0.3312865496	-0.1338484734	-159.8099365	-28.7482872	60.17461395	1.0
35	1.021915555	-0.3312865496	-0.1338484734	-159.8099365	-28.7482872	60.17461395	1.0
36	1.021915555	-0.3312865496	-0.1338484734	-159.8099365	-28.7482872	60.17461395	1.0
[aug_lied_U_R]
34	1.02207756	0.3303526342	-0.1348843277	159.7071381	-28.90532684	-60.15359116	1.0
35	1.02207756	0.3303526342	-0.1348843277	159.7071381	-28.90532684	-60.15359116	1.0
36	1.02207756	0.3303526342	-0.1348843277	159.7071381	-28.90532684	-60.15359116	1.0
[Bauch_003]
34	1.444672227	0.03385011479	-1.56629622	-3.870021374e-06	-137.6799469	1.039222207e-05	1.0
35	1.444672227	0.03385011479	-1.56629622	-3.870021374e-06	-137.6799469	1.039222207e-05	1.0
36	1.444672227	0.03385011479	-1.56629622	-3.870021374e-06	-137.6799469	1.039222207e-05	1.0
[Schalterplatte_L]
34	0.9305652976	-0.3890972137	0.05184814334	-83.42778778	74.70536804	-115.3785477	1.0
35	0.9091344476	-0.3861785531	0.03155488893	-96.40680695	72.34670258	-128.9298096	1.0
36	0.8954913616	-0.3832598925	0.01460305601	-103.3421249	69.89820099	-136.3547668	1.0
[Oberarm_L]
34	1.418636918	9.313225746e-08	1.303851604e-07	-131.6037903	-51.91522217	158.763092	1.0
35	1.418636918	9.313225746e-08	1.303851604e-07	-132.6707306	-50.602211	160.6384583	1.0
36	1.418636918	9.313225746e-08	1.303851604e-07	-132.8036041	-50.18370438	161.1953735	1.0
[Unterarm_L]
34	2.028227806	1.885928214e-07	1.862644972e-08	32.84704208	74.38121033	35.05969238	1.0
35	2.028227806	1.885928214e-07	1.862644972e-08	36.22313309	74.37521362	39.43545151	1.0
36	2.028227806	1.885928214e-07	1.862644972e-08	39.22890854	74.46477509	43.30408096	1.0
[Vorderpfote_L]
34	1.705947399	2.607703209e-07	2.305023372e-07	-22.91485786	13.14907742	-10.01145267	1.0
35	1.705947399	2.607703209e-07	2.305023372e-07	-24.4960289	-0.1072773486	-7.848830223	1.0
36	1.705947399	2.607703209e-07	2.305023372e-07	-26.31677055	-9.392251015	-5.766012669	1.0
[Schalterplatte_R]
34	0.9175300598	0.3829327822	-0.04106739536	29.16599274	77.73760223	58.52827072	1.0
35	0.9072563648	0.382974416	-0.02669129334	23.73597527	76.69874573	53.05223846	1.0
36	0.8990039825	0.3830159903	-0.01363176666	19.61618996	75.68983459	48.88774872	1.0
[Oberarm_R]
34	1.418636441	2.235174179e-07	1.490116119e-07	74.54888153	-60.40429306	-89.80664063	1.0
35	1.418636441	2.235174179e-07	1.490116119e-07	75.53622437	-60.4897728	-90.95327759	1.0
36	1.418636441	2.235174179e-07	1.490116119e-07	76.29243469	-60.55644989	-91.81402588	1.0
[Unterarm_R]
34	2.028232098	1.350417733e-07	-7.450580597e-08	-5.44086647	62.69246674	-5.657328129	1.0
35	2.028232098	1.350417733e-07	-7.450580597e-08	-5.194820404	61.13648605	-5.436172009	1.0
36	2.028232098	1.350417733e-07	-7.450580597e-08	-4.956440926	59.69757462	-5.220817089	1.0
[Vorderpfote_R]
34	1.705937624	9.313230187e-09	7.101335342e-08	-0.6710819006	93.60253906	-1.016798854	1.0
35	1.705937624	9.313230187e-09	7.101335342e-08	-0.5691244602	93.96768951	-0.9076343179	1.0
36	1.705937624	9.313230187e-09	7.101335342e-08	-0.6048102975	93.96842957	-0.9417437315	1.0
[Schwanz]
34	-0.1037415043	-1.338776023e-08	0.06825277954	0.04808125272	-121.9868851	-0.1333616823	1.0
35	-0.09562836587	-1.338776023e-08	0.06284292787	0.02448501997	-121.5024185	-0.06650630385	1.0
36	-0.09004577994	-1.338776023e-08	0.05971218646	0.00736083556	-121.1693344	-0.01970556751	1.0
[Schwanz_001]
34	0.9104326963	6.926712359e-08	1.564329999e-09	-0.6405561566	-8.414741516	0.5966001153	1.0
35	0.9104326963	6.926712359e-08	1.564329999e-09	-0.6536518931	-7.854985237	0.6125544906	1.0
36	0.9104326963	6.926712359e-08	1.564329999e-09	-0.662543416	-7.470147133	0.6234277487	1.0
[Schwanz_002]
34	0.7855662704	6.053597446e-08	1.369335223e-07	-0.3265161812	-14.38045692	0.2517362833	1.0
35	0.7855662704	6.053597446e-08	1.369335223e-07	-0.3660077453	-14.69519997	0.2825863957	1.0
36	0.7855662704	6.053597446e-08	1.369335223e-07	-0.3933109641	-14.91160107	0.3039702475	1.0
[Schwanz_003]
34	0.8350353241	6.286426668e-08	8.163624443e-08	0.255202353	4.49731636	-0.1617447436	1.0
35	0.8350353241	6.286426668e-08	8.163624443e-08	0.3477230668	8.285508156	-0.2539975941	1.0
36	0.8350353241	6.286426668e-08	8.163624443e-08	0.4074848592	10.86965466	-0.3135626912	1.0
[Oberschenkel_L]
34	0.7030183673	-0.5837000012	0.08774924278	12.09710121	-47.04151917	-5.946266651	1.0
35	0.7214801311	-0.5837000012	0.08249887079	12.81933594	-51.53332138	-6.901466846	1.0
36	0.7341524959	-0.5837000012	0.07915353775	13.65036774	-55.63441849	-7.939986706	1.0
[Unterschenkel_L]
34	1.686438918	1.149422246e-07	3.152166972e-09	-128.2842102	-73.22124481	136.8755188	1.0
35	1.686438918	1.145183504e-07	3.247687008e-09	-121.2517014	-74.81097412	129.7766113	1.0
36	1.686438918	1.140944761e-07	3.343207489e-09	-112.6316833	-76.1917038	121.06073	1.0
[Pfote1_L]
34	1.190900326	1.492981738e-07	-1.180272236e-07	-2.769840002	66.01026917	-12.27483654	1.0
35	1.190900326	1.498712976e-07	-1.165944212e-07	-3.056647778	66.74569702	-12.58821011	1.0
36	1.190900326	1.504444214e-07	-1.15161626e-07	-3.229848385	67.16415405	-12.77650452	1.0
[Pfote2_L]
34	0.9876255989	1.139795529e-07	-5.817184245e-08	41.16698074	100.2919769	35.65862274	1.0
35	0.9876255989	1.12212426e-07	-5.654799651e-08	35.4787674	101.0793533	29.97982788	1.0
36	0.9876255989	1.104453062e-07	-5.492415056e-08	30.99967384	101.8529968	25.55137634	1.0
[Oberschenkel_R]
34	0.4707815051	0.5837000608	-0.03543671966	-12.26200199	-48.18044662	6.170785904	1.0
35	0.4801044464	0.5837000608	-0.05637026578	-11.67659569	-44.02859116	5.366868973	1.0
36	0.4910361171	0.5837000608	-0.07181908935	-11.2657938	-40.42575073	4.76132679	1.0
[Unterschenkel_R]
34	1.686449051	1.11758709e-07	3.725289943e-08	-46.30614853	-115.7372208	29.34195709	1.0
35	1.686449051	1.11758709e-07	3.725289943e-08	-42.78793716	-118.2224426	25.00724792	1.0
36	1.686449051	1.11758709e-07	3.725289943e-08	-40.67037964	-120.119339	22.21967506	1.0
[Pfote1_R]
34	1.190900326	2.176966518e-07	1.11758709e-07	-2.606035948	40.60118484	5.3505826	1.0
35	1.190900326	2.176966518e-07	1.11758709e-07	-2.704627037	42.12674713	5.201020241	1.0
36	1.190900326	2.176966518e-07	1.11758709e-07	-2.801236868	43.51821899	5.058432579	1.0
[Pfote2_R]
34	0.9876256585	1.024454832e-07	-4.656610209e-09	-39.26980972	106.1618423	-27.70235634	1.0
35	0.9876256585	1.024454832e-07	-4.656610209e-09	-41.6478653	106.720047	-29.62820625	1.0
36	0.9876256585	1.024454832e-07	-4.656610209e-09	-44.14558029	106.9598083	-31.7680397	1.0
[EndOfFile]
